<mxfile host="app.diagrams.net" agent="Mozilla/5.0 (Windows NT 10.0; Win64; x64) AppleWebKit/537.36 (KHTML, like Gecko) Chrome/128.0.0.0 Safari/537.36 Edg/128.0.0.0" version="24.7.14">
  <diagram id="C5RBs43oDa-KdzZeNtuy" name="Page-1">
    <mxGraphModel dx="1002" dy="521" grid="1" gridSize="10" guides="1" tooltips="1" connect="1" arrows="1" fold="1" page="1" pageScale="1" pageWidth="827" pageHeight="1169" math="0" shadow="0">
      <root>
        <mxCell id="WIyWlLk6GJQsqaUBKTNV-0" />
        <mxCell id="WIyWlLk6GJQsqaUBKTNV-1" parent="WIyWlLk6GJQsqaUBKTNV-0" />
        <mxCell id="WIyWlLk6GJQsqaUBKTNV-2" value="" style="rounded=0;html=1;jettySize=auto;orthogonalLoop=1;fontSize=11;endArrow=block;endFill=0;strokeWidth=1;shadow=0;labelBackgroundColor=none;edgeStyle=orthogonalEdgeStyle;shape=flexArrow;entryX=0.5;entryY=0;entryDx=0;entryDy=0;" parent="WIyWlLk6GJQsqaUBKTNV-1" source="WIyWlLk6GJQsqaUBKTNV-3" target="WIyWlLk6GJQsqaUBKTNV-7" edge="1">
          <mxGeometry relative="1" as="geometry">
            <mxPoint x="220" y="170" as="targetPoint" />
          </mxGeometry>
        </mxCell>
        <mxCell id="WIyWlLk6GJQsqaUBKTNV-3" value="Tiếp nhận tài liệu" style="rounded=0;whiteSpace=wrap;html=1;fontSize=12;glass=0;strokeWidth=1;shadow=0;gradientColor=none;" parent="WIyWlLk6GJQsqaUBKTNV-1" vertex="1">
          <mxGeometry x="160" y="40" width="170" height="60" as="geometry" />
        </mxCell>
        <mxCell id="m5ijg-0fMM_QsaqAX8W5-0" style="edgeStyle=orthogonalEdgeStyle;rounded=0;orthogonalLoop=1;jettySize=auto;html=1;entryX=0.5;entryY=0;entryDx=0;entryDy=0;shape=flexArrow;" edge="1" parent="WIyWlLk6GJQsqaUBKTNV-1" source="WIyWlLk6GJQsqaUBKTNV-7" target="DcelTPWHg-D9FK-rU0N2-0">
          <mxGeometry relative="1" as="geometry" />
        </mxCell>
        <mxCell id="WIyWlLk6GJQsqaUBKTNV-7" value="Phân loại tài liệu sơ bộ&lt;div&gt;(Phân loại theo hình thức tài liệu)&lt;/div&gt;" style="rounded=0;whiteSpace=wrap;html=1;fontSize=12;glass=0;strokeWidth=1;shadow=0;" parent="WIyWlLk6GJQsqaUBKTNV-1" vertex="1">
          <mxGeometry x="160" y="150" width="170" height="60" as="geometry" />
        </mxCell>
        <mxCell id="m5ijg-0fMM_QsaqAX8W5-1" style="edgeStyle=orthogonalEdgeStyle;rounded=0;orthogonalLoop=1;jettySize=auto;html=1;entryX=0.5;entryY=0;entryDx=0;entryDy=0;shape=flexArrow;" edge="1" parent="WIyWlLk6GJQsqaUBKTNV-1" source="DcelTPWHg-D9FK-rU0N2-0" target="DcelTPWHg-D9FK-rU0N2-1">
          <mxGeometry relative="1" as="geometry" />
        </mxCell>
        <mxCell id="DcelTPWHg-D9FK-rU0N2-0" value="Phân loại nội dung tài liệu" style="rounded=0;whiteSpace=wrap;html=1;" parent="WIyWlLk6GJQsqaUBKTNV-1" vertex="1">
          <mxGeometry x="160" y="250" width="170" height="60" as="geometry" />
        </mxCell>
        <mxCell id="m5ijg-0fMM_QsaqAX8W5-3" style="edgeStyle=orthogonalEdgeStyle;rounded=0;orthogonalLoop=1;jettySize=auto;html=1;entryX=0.5;entryY=0;entryDx=0;entryDy=0;shape=flexArrow;" edge="1" parent="WIyWlLk6GJQsqaUBKTNV-1" source="DcelTPWHg-D9FK-rU0N2-1" target="m5ijg-0fMM_QsaqAX8W5-2">
          <mxGeometry relative="1" as="geometry" />
        </mxCell>
        <mxCell id="DcelTPWHg-D9FK-rU0N2-1" value="Biên mục tài liệu&lt;div&gt;(Cập nhật tài liệu)&lt;/div&gt;" style="rounded=0;whiteSpace=wrap;html=1;" parent="WIyWlLk6GJQsqaUBKTNV-1" vertex="1">
          <mxGeometry x="160" y="360" width="170" height="60" as="geometry" />
        </mxCell>
        <mxCell id="m5ijg-0fMM_QsaqAX8W5-5" style="edgeStyle=orthogonalEdgeStyle;rounded=0;orthogonalLoop=1;jettySize=auto;html=1;entryX=0.5;entryY=0;entryDx=0;entryDy=0;shape=flexArrow;" edge="1" parent="WIyWlLk6GJQsqaUBKTNV-1" source="m5ijg-0fMM_QsaqAX8W5-2" target="m5ijg-0fMM_QsaqAX8W5-4">
          <mxGeometry relative="1" as="geometry" />
        </mxCell>
        <mxCell id="m5ijg-0fMM_QsaqAX8W5-2" value="In mã vạch, cắt gián nhãn cho tài liệu" style="rounded=0;whiteSpace=wrap;html=1;" vertex="1" parent="WIyWlLk6GJQsqaUBKTNV-1">
          <mxGeometry x="160" y="480" width="170" height="70" as="geometry" />
        </mxCell>
        <mxCell id="m5ijg-0fMM_QsaqAX8W5-7" style="edgeStyle=orthogonalEdgeStyle;rounded=0;orthogonalLoop=1;jettySize=auto;html=1;entryX=0.5;entryY=0;entryDx=0;entryDy=0;shape=flexArrow;" edge="1" parent="WIyWlLk6GJQsqaUBKTNV-1" source="m5ijg-0fMM_QsaqAX8W5-4" target="m5ijg-0fMM_QsaqAX8W5-6">
          <mxGeometry relative="1" as="geometry" />
        </mxCell>
        <mxCell id="m5ijg-0fMM_QsaqAX8W5-4" value="Kiểm tra và chỉnh sửa" style="rounded=0;whiteSpace=wrap;html=1;" vertex="1" parent="WIyWlLk6GJQsqaUBKTNV-1">
          <mxGeometry x="160" y="600" width="170" height="70" as="geometry" />
        </mxCell>
        <mxCell id="m5ijg-0fMM_QsaqAX8W5-6" value="Hoàn tất hồ sơ và bàn giao sản phẩm" style="rounded=0;whiteSpace=wrap;html=1;" vertex="1" parent="WIyWlLk6GJQsqaUBKTNV-1">
          <mxGeometry x="160" y="720" width="170" height="70" as="geometry" />
        </mxCell>
      </root>
    </mxGraphModel>
  </diagram>
</mxfile>
